# Blender v2.91.0 OBJ File: ''
# www.blender.org
mtllib menuBase.mtl
o Cylinder
v 0.000000 -0.082216 -1.081027
v 0.000000 0.082216 -1.000000
v 0.224758 -0.082216 -1.057404
v 0.207912 0.082216 -0.978148
v 0.439693 -0.082216 -0.987567
v 0.406737 0.082216 -0.913545
v 0.635412 -0.082216 -0.874569
v 0.587785 0.082216 -0.809017
v 0.803359 -0.082216 -0.723348
v 0.743145 0.082216 -0.669131
v 0.936197 -0.082216 -0.540513
v 0.866025 0.082216 -0.500000
v 1.028118 -0.082216 -0.334056
v 0.951057 0.082216 -0.309017
v 1.075105 -0.082216 -0.112998
v 0.994522 0.082216 -0.104528
v 1.075105 -0.082216 0.112998
v 0.994522 0.082216 0.104529
v 1.028117 -0.082216 0.334056
v 0.951056 0.082216 0.309017
v 0.936197 -0.082216 0.540513
v 0.866025 0.082216 0.500000
v 0.803359 -0.082216 0.723348
v 0.743145 0.082216 0.669131
v 0.635412 -0.082216 0.874569
v 0.587785 0.082216 0.809017
v 0.439693 -0.082216 0.987567
v 0.406737 0.082216 0.913545
v 0.224758 -0.082216 1.057404
v 0.207912 0.082216 0.978148
v -0.000000 -0.082216 1.081027
v -0.000000 0.082216 1.000000
v -0.224758 -0.082216 1.057404
v -0.207912 0.082216 0.978148
v -0.439693 -0.082216 0.987567
v -0.406737 0.082216 0.913545
v -0.635412 -0.082216 0.874569
v -0.587785 0.082216 0.809017
v -0.803359 -0.082216 0.723348
v -0.743145 0.082216 0.669131
v -0.936197 -0.082216 0.540513
v -0.866025 0.082216 0.500000
v -1.028117 -0.082216 0.334056
v -0.951056 0.082216 0.309017
v -1.075105 -0.082216 0.112998
v -0.994522 0.082216 0.104529
v -1.075105 -0.082216 -0.112997
v -0.994522 0.082216 -0.104528
v -1.028118 -0.082216 -0.334055
v -0.951057 0.082216 -0.309016
v -0.936197 -0.082216 -0.540512
v -0.866026 0.082216 -0.499999
v -0.803360 -0.082216 -0.723347
v -0.743146 0.082216 -0.669130
v -0.635413 -0.082216 -0.874568
v -0.587786 0.082216 -0.809016
v -0.439695 -0.082216 -0.987566
v -0.406738 0.082216 -0.913545
v -0.224760 -0.082216 -1.057403
v -0.207914 0.082216 -0.978147
v 0.207912 0.082216 -0.978148
v 0.000000 0.082216 -1.000000
v 0.406737 0.082216 -0.913545
v 0.587785 0.082216 -0.809017
v 0.743145 0.082216 -0.669131
v 0.866025 0.082216 -0.500000
v 0.951057 0.082216 -0.309017
v 0.994522 0.082216 -0.104528
v 0.994522 0.082216 0.104529
v 0.951056 0.082216 0.309017
v 0.866025 0.082216 0.500000
v 0.743145 0.082216 0.669131
v 0.587785 0.082216 0.809017
v 0.406737 0.082216 0.913545
v 0.207912 0.082216 0.978148
v -0.000000 0.082216 1.000000
v -0.207912 0.082216 0.978148
v -0.406737 0.082216 0.913545
v -0.587785 0.082216 0.809017
v -0.743145 0.082216 0.669131
v -0.866025 0.082216 0.500000
v -0.951056 0.082216 0.309017
v -0.994522 0.082216 0.104529
v -0.994522 0.082216 -0.104528
v -0.951057 0.082216 -0.309016
v -0.866026 0.082216 -0.499999
v -0.743146 0.082216 -0.669130
v -0.587786 0.082216 -0.809016
v -0.406738 0.082216 -0.913545
v -0.207914 0.082216 -0.978147
v 0.207912 0.082216 -0.978148
v 0.000000 0.082216 -1.000000
v 0.406737 0.082216 -0.913545
v 0.587785 0.082216 -0.809017
v 0.743145 0.082216 -0.669131
v 0.866025 0.082216 -0.500000
v 0.951057 0.082216 -0.309017
v 0.994522 0.082216 -0.104528
v 0.994522 0.082216 0.104529
v 0.951056 0.082216 0.309017
v 0.866025 0.082216 0.500000
v 0.743145 0.082216 0.669131
v 0.587785 0.082216 0.809017
v 0.406737 0.082216 0.913545
v 0.207912 0.082216 0.978148
v -0.000000 0.082216 1.000000
v -0.207912 0.082216 0.978148
v -0.406737 0.082216 0.913545
v -0.587785 0.082216 0.809017
v -0.743145 0.082216 0.669131
v -0.866025 0.082216 0.500000
v -0.951056 0.082216 0.309017
v -0.994522 0.082216 0.104529
v -0.994522 0.082216 -0.104528
v -0.951057 0.082216 -0.309016
v -0.866026 0.082216 -0.499999
v -0.743146 0.082216 -0.669130
v -0.587786 0.082216 -0.809016
v -0.406738 0.082216 -0.913545
v -0.207914 0.082216 -0.978147
v 0.186712 0.082216 -0.878409
v -0.000000 0.082216 -0.898033
v 0.365263 0.082216 -0.820394
v 0.527851 0.082216 -0.726524
v 0.667369 0.082216 -0.600902
v 0.777720 0.082216 -0.449017
v 0.854080 0.082216 -0.277508
v 0.893114 0.082216 -0.093870
v 0.893114 0.082216 0.093870
v 0.854080 0.082216 0.277508
v 0.777720 0.082216 0.449017
v 0.667369 0.082216 0.600902
v 0.527851 0.082216 0.726524
v 0.365263 0.082216 0.820394
v 0.186712 0.082216 0.878409
v -0.000000 0.082216 0.898033
v -0.186712 0.082216 0.878409
v -0.365263 0.082216 0.820394
v -0.527851 0.082216 0.726524
v -0.667369 0.082216 0.600901
v -0.777720 0.082216 0.449017
v -0.854080 0.082216 0.277508
v -0.893114 0.082216 0.093870
v -0.893114 0.082216 -0.093869
v -0.854081 0.082216 -0.277507
v -0.777720 0.082216 -0.449016
v -0.667370 0.082216 -0.600901
v -0.527852 0.082216 -0.726523
v -0.365265 0.082216 -0.820394
v -0.186713 0.082216 -0.878409
v 0.186712 0.018150 -0.878409
v -0.000000 0.018150 -0.898033
v 0.365263 0.018150 -0.820394
v 0.527851 0.018150 -0.726524
v 0.667369 0.018150 -0.600902
v 0.777720 0.018150 -0.449017
v 0.854080 0.018150 -0.277508
v 0.893114 0.018150 -0.093870
v 0.893114 0.018150 0.093870
v 0.854080 0.018150 0.277508
v 0.777720 0.018150 0.449017
v 0.667369 0.018150 0.600902
v 0.527851 0.018150 0.726524
v 0.365263 0.018150 0.820394
v 0.186712 0.018150 0.878409
v -0.000000 0.018150 0.898033
v -0.186712 0.018150 0.878409
v -0.365263 0.018150 0.820394
v -0.527851 0.018150 0.726524
v -0.667369 0.018150 0.600901
v -0.777720 0.018150 0.449017
v -0.854080 0.018150 0.277508
v -0.893114 0.018150 0.093870
v -0.893114 0.018150 -0.093869
v -0.854081 0.018150 -0.277507
v -0.777720 0.018150 -0.449016
v -0.667370 0.018150 -0.600901
v -0.527852 0.018150 -0.726523
v -0.365265 0.018150 -0.820394
v -0.186713 0.018150 -0.878409
vt 1.000000 0.500000
vt 1.000000 1.000000
vt 0.966667 1.000000
vt 0.966667 0.500000
vt 0.933333 1.000000
vt 0.933333 0.500000
vt 0.900000 1.000000
vt 0.900000 0.500000
vt 0.866667 1.000000
vt 0.866667 0.500000
vt 0.833333 1.000000
vt 0.833333 0.500000
vt 0.800000 1.000000
vt 0.800000 0.500000
vt 0.766666 1.000000
vt 0.766666 0.500000
vt 0.733333 1.000000
vt 0.733333 0.500000
vt 0.700000 1.000000
vt 0.700000 0.500000
vt 0.666666 1.000000
vt 0.666666 0.500000
vt 0.633333 1.000000
vt 0.633333 0.500000
vt 0.600000 1.000000
vt 0.600000 0.500000
vt 0.566666 1.000000
vt 0.566666 0.500000
vt 0.533333 1.000000
vt 0.533333 0.500000
vt 0.500000 1.000000
vt 0.500000 0.500000
vt 0.466666 1.000000
vt 0.466666 0.500000
vt 0.433333 1.000000
vt 0.433333 0.500000
vt 0.400000 1.000000
vt 0.400000 0.500000
vt 0.366666 1.000000
vt 0.366666 0.500000
vt 0.333333 1.000000
vt 0.333333 0.500000
vt 0.300000 1.000000
vt 0.300000 0.500000
vt 0.266666 1.000000
vt 0.266666 0.500000
vt 0.233333 1.000000
vt 0.233333 0.500000
vt 0.200000 1.000000
vt 0.200000 0.500000
vt 0.166666 1.000000
vt 0.166666 0.500000
vt 0.133333 1.000000
vt 0.133333 0.500000
vt 0.100000 1.000000
vt 0.100000 0.500000
vt 0.066666 1.000000
vt 0.066666 0.500000
vt 0.800000 1.000000
vt 0.766666 1.000000
vt 0.033333 1.000000
vt 0.033333 0.500000
vt -0.000000 1.000000
vt -0.000000 0.500000
vt 0.750000 0.490000
vt 0.799899 0.484755
vt 0.847617 0.469251
vt 0.891068 0.444164
vt 0.928355 0.410591
vt 0.957846 0.370000
vt 0.978254 0.324164
vt 0.988685 0.275087
vt 0.988685 0.224913
vt 0.978254 0.175836
vt 0.957846 0.130000
vt 0.928355 0.089409
vt 0.891068 0.055836
vt 0.847617 0.030749
vt 0.799899 0.015245
vt 0.750000 0.010000
vt 0.700101 0.015245
vt 0.652383 0.030749
vt 0.608932 0.055836
vt 0.571645 0.089409
vt 0.542154 0.130000
vt 0.521746 0.175836
vt 0.511315 0.224913
vt 0.511315 0.275087
vt 0.521746 0.324164
vt 0.542154 0.370000
vt 0.571645 0.410591
vt 0.608931 0.444164
vt 0.652383 0.469251
vt 0.700101 0.484755
vt 0.633333 1.000000
vt 0.666666 1.000000
vt 0.666666 1.000000
vt 0.633333 1.000000
vt 0.500000 1.000000
vt 0.466666 1.000000
vt 0.200000 1.000000
vt 0.166666 1.000000
vt 0.933333 1.000000
vt 0.900000 1.000000
vt 0.600000 1.000000
vt 0.333333 1.000000
vt 0.300000 1.000000
vt 0.033333 1.000000
vt -0.000000 1.000000
vt 0.733333 1.000000
vt 0.433333 1.000000
vt 0.133333 1.000000
vt 0.866667 1.000000
vt 0.566666 1.000000
vt 0.266666 1.000000
vt 0.700000 1.000000
vt 0.400000 1.000000
vt 0.100000 1.000000
vt 0.833333 1.000000
vt 0.533333 1.000000
vt 0.233333 1.000000
vt 1.000000 1.000000
vt 0.966667 1.000000
vt 0.366666 1.000000
vt 0.066666 1.000000
vt 0.400000 1.000000
vt 0.433333 1.000000
vt 0.433333 1.000000
vt 0.400000 1.000000
vt 0.200000 1.000000
vt 0.166666 1.000000
vt 0.600000 1.000000
vt 0.133333 1.000000
vt 0.566666 1.000000
vt 0.100000 1.000000
vt 0.533333 1.000000
vt 1.000000 1.000000
vt 0.966667 1.000000
vt 0.066666 1.000000
vt 0.500000 1.000000
vt 0.933333 1.000000
vt 0.033333 1.000000
vt 0.466666 1.000000
vt 0.900000 1.000000
vt -0.000000 1.000000
vt 0.866667 1.000000
vt 0.833333 1.000000
vt 0.366666 1.000000
vt 0.800000 1.000000
vt 0.333333 1.000000
vt 0.766666 1.000000
vt 0.300000 1.000000
vt 0.733333 1.000000
vt 0.266666 1.000000
vt 0.700000 1.000000
vt 0.233333 1.000000
vt 0.166666 1.000000
vt 0.200000 1.000000
vt 0.200000 1.000000
vt 0.166666 1.000000
vt 0.866667 1.000000
vt 0.833333 1.000000
vt 0.366666 1.000000
vt 0.800000 1.000000
vt 0.333333 1.000000
vt 0.766666 1.000000
vt 0.300000 1.000000
vt 0.733333 1.000000
vt 0.266666 1.000000
vt 0.700000 1.000000
vt 0.233333 1.000000
vt 0.666666 1.000000
vt 0.633333 1.000000
vt 0.600000 1.000000
vt 0.133333 1.000000
vt 0.566666 1.000000
vt 0.100000 1.000000
vt 0.533333 1.000000
vt 1.000000 1.000000
vt 0.966667 1.000000
vt 0.066666 1.000000
vt 0.500000 1.000000
vt 0.933333 1.000000
vt 0.033333 1.000000
vt 0.466666 1.000000
vt 0.900000 1.000000
vt -0.000000 1.000000
vt 0.299899 0.484755
vt 0.250000 0.490000
vt 0.200101 0.484755
vt 0.152383 0.469251
vt 0.108931 0.444164
vt 0.071645 0.410591
vt 0.042154 0.370000
vt 0.021746 0.324164
vt 0.011315 0.275087
vt 0.011315 0.224913
vt 0.021746 0.175836
vt 0.042154 0.130000
vt 0.071645 0.089409
vt 0.108932 0.055836
vt 0.152383 0.030749
vt 0.200101 0.015245
vt 0.250000 0.010000
vt 0.299899 0.015245
vt 0.347617 0.030749
vt 0.391068 0.055836
vt 0.428355 0.089409
vt 0.457846 0.130000
vt 0.478254 0.175836
vt 0.488685 0.224913
vt 0.488685 0.275087
vt 0.478254 0.324164
vt 0.457846 0.370000
vt 0.428355 0.410591
vt 0.391068 0.444164
vt 0.347617 0.469251
vt 0.633333 1.000000
vt 0.600000 1.000000
vt 0.133333 1.000000
vt 0.566666 1.000000
vt 0.100000 1.000000
vt 0.533333 1.000000
vt 1.000000 1.000000
vt 0.966667 1.000000
vt 0.066666 1.000000
vt 0.500000 1.000000
vt 0.933333 1.000000
vt 0.033333 1.000000
vt 0.466666 1.000000
vt 0.900000 1.000000
vt -0.000000 1.000000
vt 0.433333 1.000000
vt 0.866667 1.000000
vt 0.400000 1.000000
vt 0.833333 1.000000
vt 0.366666 1.000000
vt 0.800000 1.000000
vt 0.333333 1.000000
vt 0.766666 1.000000
vt 0.300000 1.000000
vt 0.733333 1.000000
vt 0.266666 1.000000
vt 0.700000 1.000000
vt 0.233333 1.000000
vt 0.666666 1.000000
vn 0.0939 0.4401 -0.8930
vn 0.2775 0.4401 -0.8540
vn 0.4490 0.4401 -0.7777
vn 0.6009 0.4401 -0.6673
vn 0.7265 0.4401 -0.5278
vn 0.8203 0.4401 -0.3652
vn 0.8783 0.4401 -0.1867
vn 0.8980 0.4401 0.0000
vn 0.8783 0.4401 0.1867
vn 0.8203 0.4401 0.3652
vn 0.7265 0.4401 0.5278
vn 0.6009 0.4401 0.6673
vn 0.4490 0.4401 0.7777
vn 0.2775 0.4401 0.8540
vn 0.0939 0.4401 0.8930
vn -0.0939 0.4401 0.8930
vn -0.2775 0.4401 0.8540
vn -0.4490 0.4401 0.7777
vn -0.6009 0.4401 0.6673
vn -0.7265 0.4401 0.5278
vn -0.8203 0.4401 0.3652
vn -0.8783 0.4401 0.1867
vn -0.8980 0.4401 0.0000
vn -0.8783 0.4401 -0.1867
vn -0.8203 0.4401 -0.3652
vn -0.7265 0.4401 -0.5278
vn -0.6009 0.4401 -0.6673
vn -0.4490 0.4401 -0.7777
vn 0.0000 0.0000 1.0000
vn -0.2775 0.4401 -0.8540
vn -0.0939 0.4401 -0.8930
vn 0.0000 -1.0000 -0.0000
vn 0.0000 1.0000 -0.0000
vn 0.9135 0.0000 0.4067
vn -0.6691 0.0000 -0.7431
vn 0.8090 0.0000 0.5878
vn -0.5000 0.0000 -0.8660
vn 0.6691 0.0000 0.7431
vn -0.3090 0.0000 -0.9511
vn -0.1045 0.0000 0.9945
vn 0.5000 0.0000 0.8660
vn -0.1045 0.0000 -0.9945
vn -0.3090 0.0000 0.9511
vn 0.3090 0.0000 0.9511
vn 0.1045 0.0000 -0.9945
vn -0.5000 0.0000 0.8660
vn 0.1045 0.0000 0.9945
vn 0.3090 0.0000 -0.9511
vn -0.6691 0.0000 0.7431
vn 0.5000 0.0000 -0.8660
vn -0.8090 0.0000 0.5878
vn 0.6691 0.0000 -0.7431
vn -0.9135 0.0000 0.4067
vn 0.8090 0.0000 -0.5878
vn -0.9781 0.0000 0.2079
vn 0.9135 0.0000 -0.4067
vn -1.0000 0.0000 0.0000
vn 0.9781 0.0000 -0.2079
vn -0.9781 0.0000 -0.2079
vn 1.0000 0.0000 -0.0000
vn -0.9135 0.0000 -0.4067
vn 0.9781 0.0000 0.2079
vn -0.8090 0.0000 -0.5878
usemtl None
s off
f 1/1/1 2/2/1 4/3/1 3/4/1
f 3/4/2 4/3/2 6/5/2 5/6/2
f 5/6/3 6/5/3 8/7/3 7/8/3
f 7/8/4 8/7/4 10/9/4 9/10/4
f 9/10/5 10/9/5 12/11/5 11/12/5
f 11/12/6 12/11/6 14/13/6 13/14/6
f 13/14/7 14/13/7 16/15/7 15/16/7
f 15/16/8 16/15/8 18/17/8 17/18/8
f 17/18/9 18/17/9 20/19/9 19/20/9
f 19/20/10 20/19/10 22/21/10 21/22/10
f 21/22/11 22/21/11 24/23/11 23/24/11
f 23/24/12 24/23/12 26/25/12 25/26/12
f 25/26/13 26/25/13 28/27/13 27/28/13
f 27/28/14 28/27/14 30/29/14 29/30/14
f 29/30/15 30/29/15 32/31/15 31/32/15
f 31/32/16 32/31/16 34/33/16 33/34/16
f 33/34/17 34/33/17 36/35/17 35/36/17
f 35/36/18 36/35/18 38/37/18 37/38/18
f 37/38/19 38/37/19 40/39/19 39/40/19
f 39/40/20 40/39/20 42/41/20 41/42/20
f 41/42/21 42/41/21 44/43/21 43/44/21
f 43/44/22 44/43/22 46/45/22 45/46/22
f 45/46/23 46/45/23 48/47/23 47/48/23
f 47/48/24 48/47/24 50/49/24 49/50/24
f 49/50/25 50/49/25 52/51/25 51/52/25
f 51/52/26 52/51/26 54/53/26 53/54/26
f 53/54/27 54/53/27 56/55/27 55/56/27
f 55/56/28 56/55/28 58/57/28 57/58/28
f 16/15/29 14/13/29 67/59/29 68/60/29
f 57/58/30 58/57/30 60/61/30 59/62/30
f 59/62/31 60/61/31 2/63/31 1/64/31
f 1/65/32 3/66/32 5/67/32 7/68/32 9/69/32 11/70/32 13/71/32 15/72/32 17/73/32 19/74/32 21/75/32 23/76/32 25/77/32 27/78/32 29/79/32 31/80/32 33/81/32 35/82/32 37/83/32 39/84/32 41/85/32 43/86/32 45/87/32 47/88/32 49/89/32 51/90/32 53/91/32 55/92/32 57/93/32 59/94/32
f 72/95/29 71/96/29 101/97/29 102/98/29
f 34/33/29 32/31/29 76/99/29 77/100/29
f 52/51/29 50/49/29 85/101/29 86/102/29
f 8/7/29 6/5/29 63/103/29 64/104/29
f 26/25/29 24/23/29 72/95/29 73/105/29
f 44/43/29 42/41/29 81/106/29 82/107/29
f 2/63/29 60/61/29 90/108/29 62/109/29
f 18/17/29 16/15/29 68/60/29 69/110/29
f 36/35/29 34/33/29 77/100/29 78/111/29
f 54/53/29 52/51/29 86/102/29 87/112/29
f 10/9/29 8/7/29 64/104/29 65/113/29
f 28/27/29 26/25/29 73/105/29 74/114/29
f 46/45/29 44/43/29 82/107/29 83/115/29
f 20/19/29 18/17/29 69/110/29 70/116/29
f 38/37/29 36/35/29 78/111/29 79/117/29
f 56/55/29 54/53/29 87/112/29 88/118/29
f 12/11/29 10/9/29 65/113/29 66/119/29
f 30/29/29 28/27/29 74/114/29 75/120/29
f 48/47/29 46/45/29 83/115/29 84/121/29
f 4/3/29 2/2/29 62/122/29 61/123/29
f 22/21/29 20/19/29 70/116/29 71/96/29
f 40/39/29 38/37/29 79/117/29 80/124/29
f 58/57/29 56/55/29 88/118/29 89/125/29
f 14/13/29 12/11/29 66/119/29 67/59/29
f 32/31/29 30/29/29 75/120/29 76/99/29
f 50/49/29 48/47/29 84/121/29 85/101/29
f 6/5/29 4/3/29 61/123/29 63/103/29
f 24/23/29 22/21/29 71/96/29 72/95/29
f 42/41/29 40/39/29 80/124/29 81/106/29
f 60/61/29 58/57/29 89/125/29 90/108/29
f 109/126/33 108/127/33 138/128/33 139/129/33
f 86/102/29 85/101/29 115/130/29 116/131/29
f 73/105/29 72/95/29 102/98/29 103/132/29
f 87/112/29 86/102/29 116/131/29 117/133/29
f 74/114/29 73/105/29 103/132/29 104/134/29
f 88/118/29 87/112/29 117/133/29 118/135/29
f 75/120/29 74/114/29 104/134/29 105/136/29
f 61/123/29 62/122/29 92/137/29 91/138/29
f 89/125/29 88/118/29 118/135/29 119/139/29
f 76/99/29 75/120/29 105/136/29 106/140/29
f 63/103/29 61/123/29 91/138/29 93/141/29
f 90/108/29 89/125/29 119/139/29 120/142/29
f 77/100/29 76/99/29 106/140/29 107/143/29
f 64/104/29 63/103/29 93/141/29 94/144/29
f 62/109/29 90/108/29 120/142/29 92/145/29
f 78/111/29 77/100/29 107/143/29 108/127/29
f 65/113/29 64/104/29 94/144/29 95/146/29
f 79/117/29 78/111/29 108/127/29 109/126/29
f 66/119/29 65/113/29 95/146/29 96/147/29
f 80/124/29 79/117/29 109/126/29 110/148/29
f 67/59/29 66/119/29 96/147/29 97/149/29
f 81/106/29 80/124/29 110/148/29 111/150/29
f 68/60/29 67/59/29 97/149/29 98/151/29
f 82/107/29 81/106/29 111/150/29 112/152/29
f 69/110/29 68/60/29 98/151/29 99/153/29
f 83/115/29 82/107/29 112/152/29 113/154/29
f 70/116/29 69/110/29 99/153/29 100/155/29
f 84/121/29 83/115/29 113/154/29 114/156/29
f 71/96/29 70/116/29 100/155/29 101/97/29
f 85/101/29 84/121/29 114/156/29 115/130/29
f 146/157/34 145/158/34 175/159/34 176/160/34
f 96/147/33 95/146/33 125/161/33 126/162/33
f 110/148/33 109/126/33 139/129/33 140/163/33
f 97/149/33 96/147/33 126/162/33 127/164/33
f 111/150/33 110/148/33 140/163/33 141/165/33
f 98/151/33 97/149/33 127/164/33 128/166/33
f 112/152/33 111/150/33 141/165/33 142/167/33
f 99/153/33 98/151/33 128/166/33 129/168/33
f 113/154/33 112/152/33 142/167/33 143/169/33
f 100/155/33 99/153/33 129/168/33 130/170/33
f 114/156/33 113/154/33 143/169/33 144/171/33
f 101/97/33 100/155/33 130/170/33 131/172/33
f 115/130/33 114/156/33 144/171/33 145/158/33
f 102/98/33 101/97/33 131/172/33 132/173/33
f 116/131/33 115/130/33 145/158/33 146/157/33
f 103/132/33 102/98/33 132/173/33 133/174/33
f 117/133/33 116/131/33 146/157/33 147/175/33
f 104/134/33 103/132/33 133/174/33 134/176/33
f 118/135/33 117/133/33 147/175/33 148/177/33
f 105/136/33 104/134/33 134/176/33 135/178/33
f 91/138/33 92/137/33 122/179/33 121/180/33
f 119/139/33 118/135/33 148/177/33 149/181/33
f 106/140/33 105/136/33 135/178/33 136/182/33
f 93/141/33 91/138/33 121/180/33 123/183/33
f 120/142/33 119/139/33 149/181/33 150/184/33
f 107/143/33 106/140/33 136/182/33 137/185/33
f 94/144/33 93/141/33 123/183/33 124/186/33
f 92/145/33 120/142/33 150/184/33 122/187/33
f 108/127/33 107/143/33 137/185/33 138/128/33
f 95/146/33 94/144/33 124/186/33 125/161/33
f 151/188/33 152/189/33 180/190/33 179/191/33 178/192/33 177/193/33 176/194/33 175/195/33 174/196/33 173/197/33 172/198/33 171/199/33 170/200/33 169/201/33 168/202/33 167/203/33 166/204/33 165/205/33 164/206/33 163/207/33 162/208/33 161/209/33 160/210/33 159/211/33 158/212/33 157/213/33 156/214/33 155/215/33 154/216/33 153/217/33
f 133/174/35 132/173/35 162/218/35 163/219/35
f 147/175/36 146/157/36 176/160/36 177/220/36
f 134/176/37 133/174/37 163/219/37 164/221/37
f 148/177/38 147/175/38 177/220/38 178/222/38
f 135/178/39 134/176/39 164/221/39 165/223/39
f 121/180/40 122/179/40 152/224/40 151/225/40
f 149/181/41 148/177/41 178/222/41 179/226/41
f 136/182/42 135/178/42 165/223/42 166/227/42
f 123/183/43 121/180/43 151/225/43 153/228/43
f 150/184/44 149/181/44 179/226/44 180/229/44
f 137/185/45 136/182/45 166/227/45 167/230/45
f 124/186/46 123/183/46 153/228/46 154/231/46
f 122/187/47 150/184/47 180/229/47 152/232/47
f 138/128/48 137/185/48 167/230/48 168/233/48
f 125/161/49 124/186/49 154/231/49 155/234/49
f 139/129/50 138/128/50 168/233/50 169/235/50
f 126/162/51 125/161/51 155/234/51 156/236/51
f 140/163/52 139/129/52 169/235/52 170/237/52
f 127/164/53 126/162/53 156/236/53 157/238/53
f 141/165/54 140/163/54 170/237/54 171/239/54
f 128/166/55 127/164/55 157/238/55 158/240/55
f 142/167/56 141/165/56 171/239/56 172/241/56
f 129/168/57 128/166/57 158/240/57 159/242/57
f 143/169/58 142/167/58 172/241/58 173/243/58
f 130/170/59 129/168/59 159/242/59 160/244/59
f 144/171/60 143/169/60 173/243/60 174/245/60
f 131/172/61 130/170/61 160/244/61 161/246/61
f 145/158/62 144/171/62 174/245/62 175/159/62
f 132/173/63 131/172/63 161/246/63 162/218/63
